<?xml version="1.0" encoding="UTF-8"?>
<svg width="120px" height="120px" viewBox="0 0 120 120" version="1.1" xmlns="http://www.w3.org/2000/svg" xmlns:xlink="http://www.w3.org/1999/xlink">
    <title>成功</title>
    <g id="页面-1" stroke="none" stroke-width="1" fill="none" fill-rule="evenodd">
        <g id="支付成功" transform="translate(-315.000000, -231.000000)">
            <g id="成功" transform="translate(315.000000, 231.000000)">
                <path d="M120,60.7407407 C120,26.8622222 93.1377778,0 59.2592593,0 C26.8622222,0 0,26.8622222 0,60.7407407 C0,93.1377778 26.8622222,120 59.2592593,120 C93.1377778,120 120,93.1377778 120,60.7407407 Z" id="Fill-" fill="#09BB07"></path>
                <path d="M30.2228624,63.9554615 C29.9750694,63.699008 29.9416185,63.2632996 30.1589395,62.9675951 L32.860684,59.2913832 C33.0731733,59.002253 33.4741724,58.9431848 33.75707,59.1600096 L49.8294826,71.4785921 C50.1120537,71.6951666 50.5569182,71.6909598 50.8337739,71.4603166 L89.957117,38.8674075 C90.2292007,38.6407398 90.6565144,38.6611711 90.9035717,38.9051641 L93.467201,41.4369959 C93.7178297,41.684516 93.7170009,42.0859408 93.4610554,42.3378294 L50.7997943,84.3228827 C50.5457714,84.5728792 50.1362997,84.5648819 49.8911763,84.3111913 L30.2228624,63.9554615 Z" id="Fill-" fill="#FFFFFF"></path>
            </g>
        </g>
    </g>
</svg>